# Blender v2.77 (sub 0) OBJ File: 'LowPolyMan.blend'
# www.blender.org
mtllib LowPolyMan.mtl
o Cube
v 0.788748 -3.571380 -1.000000
v 0.788748 -3.571380 1.000000
v -0.788748 -3.571380 1.000000
v -0.788748 -3.571380 -1.000000
v 0.788748 3.473783 -0.999999
v 0.788747 3.473783 1.000001
v -0.788748 3.473783 1.000000
v -0.788748 3.473783 -1.000000
v 0.788748 -3.571380 0.000000
v 0.000000 -3.571380 -1.000000
v 0.788748 1.899634 -1.000000
v 0.000000 -3.571380 1.000000
v 0.788748 1.899634 1.000000
v -0.788748 -3.571380 -0.000000
v -0.788748 1.899634 1.000000
v -0.788748 1.899634 -1.000000
v 0.788748 3.473783 0.000001
v 0.000000 3.473783 -1.000000
v -0.000000 3.473783 1.000000
v -0.788748 3.473783 -0.000000
v 0.000000 1.899634 -1.000000
v -0.788748 1.899634 -0.000000
v -0.000000 1.899634 1.000000
v 0.788748 1.899634 0.000000
v -0.000000 3.473783 0.000000
v 0.000000 -3.571380 -0.000000
v 0.788748 -3.571380 0.500000
v -0.278734 -3.571380 -1.000000
v 0.788748 2.892996 -1.000000
v -0.278735 -3.571380 1.000000
v 0.788748 2.892996 1.000000
v -0.788748 -3.571380 -0.500000
v -0.788748 2.892996 1.000000
v -0.788748 2.892996 -1.000000
v 0.788748 3.473783 0.500001
v -0.278735 3.473783 -1.000000
v -0.278735 3.473783 1.000000
v -0.788748 3.473783 -0.500000
v 0.788748 -3.571380 -0.500000
v 0.278735 -3.571380 -1.000000
v 0.788748 -0.569108 -1.000000
v 0.278735 -3.571380 1.000000
v 0.788748 -0.569108 1.000000
v -0.788748 -3.571380 0.500000
v -0.788748 -0.569108 1.000000
v -0.788748 -0.569108 -1.000000
v 0.788748 3.473783 -0.499999
v 0.278735 3.473783 -1.000000
v 0.278734 3.473783 1.000000
v -0.788748 3.473783 0.500000
v -0.278734 1.899634 -1.000000
v 0.278735 1.899634 -1.000000
v 0.000000 2.892996 -1.000000
v 0.000000 -0.569108 -1.000000
v -0.788748 1.899634 -0.500000
v -0.788748 1.899634 0.500000
v -0.788748 -0.569108 -0.000000
v -0.788748 2.892996 -0.000000
v -0.278735 1.899634 1.000000
v 0.278734 1.899634 1.000000
v -0.000000 -0.569108 1.000000
v -0.000000 2.892996 1.000000
v 0.788748 1.899634 0.500000
v 0.788748 1.899634 -0.500000
v 0.788748 -0.569108 0.000000
v 0.788748 2.892996 0.000000
v -0.000000 3.473783 0.500000
v 0.000000 3.473783 -0.500000
v 0.278734 3.473783 0.000000
v -0.278735 3.473783 0.000000
v -0.278735 -3.571380 -0.000000
v 0.278735 -3.571380 -0.000000
v 0.000000 -3.571380 -0.500000
v 0.000000 -3.571380 0.500000
v 0.278735 -3.571380 0.500000
v 0.278735 -3.571380 -0.500000
v -0.278734 -3.571380 -0.500000
v -0.278735 3.473783 -0.500000
v 0.278735 3.473783 -0.500000
v 0.278734 3.473783 0.500000
v 0.788748 2.892996 -0.500000
v 0.788748 -0.569108 -0.500000
v 0.788748 -0.569108 0.500000
v 0.278734 2.892996 1.000000
v 0.278734 -0.569108 1.000000
v -0.278735 -0.569108 1.000000
v -0.788748 2.892996 0.500000
v -0.788748 -0.569108 0.500000
v -0.788748 -0.569108 -0.500000
v 0.278735 -0.569108 -1.000000
v 0.278735 2.892996 -1.000000
v -0.278734 2.892996 -1.000000
v -0.278734 -0.569108 -1.000000
v -0.788748 2.892996 -0.500000
v -0.278735 2.892996 1.000000
v 0.788748 2.892996 0.500000
v -0.278735 3.473783 0.500000
v -0.278735 -3.571380 0.500000
v 0.278735 1.899634 -1.500000
v 0.000000 1.899634 -1.500000
v 0.000000 -0.569108 -1.500000
v -0.278734 1.899634 -1.500000
v 0.278735 -0.569108 -1.500000
v -0.278734 -0.569108 -1.500000
v -0.278186 1.323843 1.000000
v -0.278186 1.045108 1.500000
v -0.278186 1.045108 1.000000
v 2.190555 1.602577 1.000000
v 2.190555 1.323843 1.000000
v 2.190555 1.045108 1.000000
v 0.788748 -3.571380 0.750000
v 0.788748 -3.571380 -0.250000
v 0.788748 -2.070244 0.000000
v 0.788748 -3.571380 0.250000
v 0.788748 -3.571380 -0.750000
v 0.788748 -2.070244 -1.000000
v 0.788748 -2.070244 1.000000
v 0.788748 -0.569108 -0.250000
v 0.788748 -0.569108 -0.750000
v 0.788748 -2.070244 -0.500000
v 0.788748 -0.569108 0.750000
v 0.788748 -0.569108 0.250000
v 0.788748 -2.070244 0.500000
v -0.278186 1.602577 1.000000
v 2.190555 1.045108 1.500000
v 2.190555 1.323843 1.500000
v 2.190555 1.602577 1.500000
v -0.278186 1.323843 1.500000
v -0.278186 1.602577 1.500000
vt 0.1211 0.3823
vt 0.1814 0.3043
vt 0.1814 0.3823
vt 0.5587 0.3739
vt 0.4806 0.3136
vt 0.5587 0.3136
vt 0.9241 0.9624
vt 0.9844 0.9821
vt 0.9241 0.9821
vt 0.1822 0.9624
vt 0.2602 0.9821
vt 0.1822 0.9821
vt 0.4413 0.9821
vt 0.5016 0.9624
vt 0.5016 0.9821
vt 0.4236 0.1273
vt 0.5016 0.2288
vt 0.4236 0.2288
vt 0.4213 0.9065
vt 0.4993 0.9400
vt 0.4213 0.9400
vt 0.3360 0.9065
vt 0.3786 0.9400
vt 0.3360 0.9400
vt 0.3383 0.1273
vt 0.3809 0.2288
vt 0.3383 0.2288
vt 0.7823 0.7852
vt 0.8427 0.8687
vt 0.7823 0.8687
vt 0.6616 0.7852
vt 0.7220 0.8687
vt 0.6616 0.8687
vt 0.3206 0.9624
vt 0.3809 0.9821
vt 0.3206 0.9821
vt 0.5232 0.7852
vt 0.6013 0.8687
vt 0.5232 0.8687
vt 0.4528 0.7137
vt 0.4434 0.6287
vt 0.4528 0.6287
vt 0.0969 0.9821
vt 0.1395 0.9624
vt 0.1395 0.9821
vt 0.0188 0.8690
vt 0.0188 0.7856
vt 0.0490 0.7854
vt 0.1394 0.8690
vt 0.1394 0.7856
vt 0.1696 0.7854
vt 0.8034 0.9624
vt 0.8637 0.9821
vt 0.8034 0.9821
vt 0.6440 0.3739
vt 0.6013 0.3136
vt 0.6440 0.3136
vt 0.6440 0.4946
vt 0.6013 0.4343
vt 0.6440 0.4343
vt 0.5587 0.4946
vt 0.4806 0.4343
vt 0.5587 0.4343
vt 0.2418 0.3823
vt 0.3021 0.3043
vt 0.3021 0.3823
vt 0.3021 0.4676
vt 0.2418 0.4249
vt 0.3021 0.4249
vt 0.1814 0.4676
vt 0.1211 0.4249
vt 0.1814 0.4249
vt 0.2418 0.4676
vt 0.2116 0.5461
vt 0.1513 0.5461
vt 0.1211 0.4676
vt 0.3624 0.4249
vt 0.3624 0.4676
vt 0.3322 0.5461
vt 0.2719 0.5461
vt 0.3624 0.3823
vt 0.3624 0.3043
vt 0.6013 0.4946
vt 0.6013 0.5550
vt 0.5587 0.5550
vt 0.4806 0.4946
vt 0.7220 0.4343
vt 0.7220 0.4946
vt 0.7220 0.5550
vt 0.6440 0.5550
vt 0.7220 0.3136
vt 0.7220 0.3739
vt 0.6013 0.3739
vt 0.1976 0.9400
vt 0.1372 0.9065
vt 0.1976 0.9065
vt 0.2579 0.9400
vt 0.2579 0.9065
vt 0.7430 0.9624
vt 0.7430 0.9821
vt 0.0792 0.1781
vt 0.1093 0.1273
vt 0.1395 0.1781
vt 0.1998 0.8690
vt 0.1998 0.7856
vt 0.2299 0.7854
vt 0.1697 0.1273
vt 0.1999 0.1781
vt 0.2300 0.1273
vt 0.2602 0.1781
vt 0.0791 0.8690
vt 0.0791 0.7856
vt 0.1093 0.7854
vt 0.9041 0.9400
vt 0.8614 0.9065
vt 0.9041 0.9065
vt 0.9821 0.9400
vt 0.9821 0.9065
vt 0.0188 0.9624
vt 0.0188 0.9821
vt 0.9064 0.2288
vt 0.8637 0.1273
vt 0.9064 0.1273
vt 0.9844 0.1781
vt 0.3599 0.7852
vt 0.4379 0.8687
vt 0.3599 0.8687
vt 0.8211 0.1273
vt 0.7430 0.2288
vt 0.7430 0.1273
vt 0.8637 0.2288
vt 0.9130 0.4687
vt 0.8527 0.4782
vt 0.8527 0.4687
vt 0.6804 0.9400
vt 0.6200 0.9065
vt 0.6804 0.9065
vt 0.7407 0.9400
vt 0.7407 0.9065
vt 0.2602 0.9624
vt 0.6827 0.2288
vt 0.6223 0.1273
vt 0.6827 0.1273
vt 0.6013 0.7852
vt 0.5620 0.1273
vt 0.5016 0.1273
vt 0.5620 0.2288
vt 0.7220 0.7852
vt 0.8373 0.5563
vt 0.8799 0.4960
vt 0.8799 0.5563
vt 0.2601 0.8690
vt 0.3381 0.7856
vt 0.3381 0.8690
vt 0.6650 0.9821
vt 0.6223 0.9624
vt 0.6650 0.9624
vt 0.5797 0.9821
vt 0.5797 0.9624
vt 0.6223 0.9821
vt 0.3786 0.9065
vt 0.9207 0.7852
vt 0.8427 0.7852
vt 0.8362 0.6882
vt 0.8788 0.7486
vt 0.8362 0.7486
vt 0.3809 0.1273
vt 0.5597 0.9400
vt 0.4993 0.9065
vt 0.5597 0.9065
vt 0.6200 0.9400
vt 0.3809 0.9624
vt 0.8188 0.9400
vt 0.8188 0.9065
vt 0.8614 0.9400
vt 0.0769 0.9400
vt 0.0165 0.9065
vt 0.0769 0.9065
vt 0.1372 0.9400
vt 0.8637 0.9624
vt 0.2418 0.3043
vt 0.5411 0.6292
vt 0.5837 0.7126
vt 0.5411 0.7126
vt 0.5837 0.6292
vt 0.6264 0.7126
vt 0.4807 0.6292
vt 0.4807 0.7126
vt 0.9226 0.4960
vt 0.9226 0.5563
vt 0.6867 0.7126
vt 0.6264 0.6292
vt 0.6867 0.6292
vt 0.8788 0.6882
vt 0.9215 0.7486
vt 0.3039 0.6287
vt 0.3642 0.7137
vt 0.3039 0.7137
vt 0.9068 0.6554
vt 0.8465 0.6460
vt 0.9068 0.6460
vt 0.9130 0.4593
vt 0.8527 0.4593
vt 0.3736 0.6287
vt 0.3831 0.7137
vt 0.3736 0.7137
vt 0.3642 0.6287
vt 0.9068 0.6648
vt 0.8465 0.6554
vt 0.0188 0.1781
vt 0.0490 0.2288
vt 0.4434 0.7137
vt 0.3831 0.6287
vt 0.4806 0.8687
vt 0.4806 0.7852
vt 0.1211 0.3043
vt 0.4806 0.3739
vt 0.9844 0.9624
vt 0.4413 0.9624
vt 0.4622 0.6287
vt 0.4622 0.7137
vt 0.0969 0.9624
vt 0.2418 0.5456
vt 0.1814 0.5456
vt 0.1211 0.5456
vt 0.3624 0.5456
vt 0.3021 0.5456
vt 0.4806 0.5550
vt 0.1395 0.2288
vt 0.1093 0.2288
vt 0.0792 0.2288
vt 0.1395 0.1273
vt 0.0792 0.1273
vt 0.2601 0.7856
vt 0.1999 0.2288
vt 0.1697 0.2288
vt 0.1999 0.1273
vt 0.2602 0.2288
vt 0.2300 0.2288
vt 0.2602 0.1273
vt 0.9844 0.1273
vt 0.9844 0.2288
vt 0.4379 0.7852
vt 0.8211 0.2288
vt 0.9130 0.4782
vt 0.6223 0.2288
vt 0.8373 0.4960
vt 0.9207 0.8687
vt 0.0165 0.9400
vt 0.9215 0.6882
vt 0.8465 0.6648
vt 0.0188 0.1273
vt 0.0490 0.1273
vt 0.0188 0.2288
vn 0.0000 -1.0000 0.0000
vn 0.0000 1.0000 0.0000
vn 1.0000 0.0000 0.0000
vn -0.0000 -0.0000 1.0000
vn -1.0000 -0.0000 -0.0000
vn 0.0000 0.0000 -1.0000
usemtl Material
s off
f 30/1/1 44/2/1 98/3/1
f 97/4/2 7/5/2 37/6/2
f 35/7/3 31/8/3 96/9/3
f 37/10/4 33/11/4 95/12/4
f 94/13/5 8/14/5 34/15/5
f 28/16/6 46/17/6 93/18/6
f 51/19/6 34/20/6 92/21/6
f 52/22/6 53/23/6 91/24/6
f 40/25/6 54/26/6 90/27/6
f 55/28/5 46/29/5 89/30/5
f 56/31/5 57/32/5 88/33/5
f 50/34/5 58/35/5 87/36/5
f 59/37/4 45/38/4 86/39/4
f 105/40/6 108/41/6 109/42/6
f 84/43/4 19/44/4 62/45/4
f 13/46/3 43/47/3 121/48/3
f 24/49/3 65/50/3 118/51/3
f 47/52/3 66/53/3 81/54/3
f 80/55/2 19/56/2 49/57/2
f 79/58/2 25/59/2 69/60/2
f 78/61/2 20/62/2 70/63/2
f 71/64/1 32/65/1 77/66/1
f 76/67/1 26/68/1 73/69/1
f 75/70/1 12/71/1 74/72/1
f 75/70/1 26/68/1 72/73/1
f 114/74/1 75/70/1 72/73/1
f 111/75/1 42/76/1 75/70/1
f 76/67/1 10/77/1 40/78/1
f 115/79/1 76/67/1 40/78/1
f 112/80/1 72/73/1 76/67/1
f 28/81/1 32/65/1 4/82/1
f 10/77/1 77/66/1 28/81/1
f 73/69/1 71/64/1 77/66/1
f 68/83/2 70/63/2 25/59/2
f 18/84/2 78/61/2 68/83/2
f 36/85/2 38/86/2 78/61/2
f 79/58/2 17/87/2 47/88/2
f 5/89/2 79/58/2 47/88/2
f 48/90/2 68/83/2 79/58/2
f 80/55/2 6/91/2 35/92/2
f 17/87/2 80/55/2 35/92/2
f 69/60/2 67/93/2 80/55/2
f 81/94/3 24/95/3 64/96/3
f 29/97/3 64/96/3 11/98/3
f 5/99/3 81/54/3 29/100/3
f 123/101/3 114/102/3 113/103/3
f 64/104/3 82/105/3 119/106/3
f 113/103/3 112/107/3 120/108/3
f 120/108/3 115/109/3 116/110/3
f 63/111/3 83/112/3 122/113/3
f 84/114/4 23/115/4 60/116/4
f 31/117/4 60/116/4 13/118/4
f 6/119/4 84/43/4 31/120/4
f 85/121/4 12/122/4 42/123/4
f 117/124/4 85/121/4 42/123/4
f 13/125/4 85/126/4 43/127/4
f 30/128/4 45/129/4 3/130/4
f 61/131/4 30/128/4 12/122/4
f 109/132/3 127/133/3 126/134/3
f 87/135/5 22/136/5 56/137/5
f 33/138/5 56/137/5 15/139/5
f 7/140/5 87/36/5 33/11/5
f 88/141/5 14/142/5 44/143/5
f 45/129/5 44/143/5 3/130/5
f 15/144/5 88/33/5 45/38/5
f 32/145/5 46/17/5 4/146/5
f 14/142/5 89/147/5 32/145/5
f 22/148/5 89/30/5 57/32/5
f 93/149/1 101/150/1 54/151/1
f 11/152/6 90/153/6 52/154/6
f 116/110/6 40/25/6 90/27/6
f 91/155/6 18/156/6 48/157/6
f 29/100/6 48/157/6 5/99/6
f 11/98/6 91/24/6 29/97/6
f 92/158/6 8/14/6 36/159/6
f 53/160/6 36/159/6 18/156/6
f 21/161/6 92/21/6 53/23/6
f 51/162/6 46/29/6 16/163/6
f 51/164/2 100/165/2 102/166/2
f 10/167/6 93/18/6 54/26/6
f 94/168/5 16/169/5 55/170/5
f 58/171/5 55/170/5 22/136/5
f 20/172/5 94/13/5 58/35/5
f 95/173/4 15/139/4 59/174/4
f 62/175/4 59/174/4 23/115/4
f 19/44/4 95/12/4 62/45/4
f 96/176/3 13/177/3 63/178/3
f 66/179/3 63/178/3 24/95/3
f 17/180/3 96/9/3 66/53/3
f 67/93/2 37/6/2 19/56/2
f 25/59/2 97/4/2 67/93/2
f 20/62/2 97/4/2 70/63/2
f 98/3/1 14/181/1 71/64/1
f 26/68/1 98/3/1 71/64/1
f 12/71/1 98/3/1 74/72/1
f 103/182/6 100/183/6 99/184/6
f 101/185/6 102/186/6 100/183/6
f 90/187/3 99/184/3 52/188/3
f 54/151/1 103/189/1 90/190/1
f 51/191/5 104/192/5 93/193/5
f 21/194/2 99/195/2 100/165/2
f 110/196/1 106/197/1 107/198/1
f 105/199/5 129/200/5 124/201/5
f 110/202/3 126/134/3 125/203/3
f 126/204/4 129/205/4 128/206/4
f 125/207/4 128/206/4 106/197/4
f 107/208/5 128/209/5 105/199/5
f 117/210/3 123/101/3 121/211/3
f 124/212/2 127/213/2 108/41/2
f 59/37/4 61/214/4 23/215/4
f 30/1/1 3/216/1 44/2/1
f 97/4/2 50/217/2 7/5/2
f 35/7/3 6/218/3 31/8/3
f 37/10/4 7/140/4 33/11/4
f 94/13/5 38/219/5 8/14/5
f 28/16/6 4/146/6 46/17/6
f 51/19/6 16/169/6 34/20/6
f 52/22/6 21/161/6 53/23/6
f 40/25/6 10/167/6 54/26/6
f 55/28/5 16/163/5 46/29/5
f 56/31/5 22/148/5 57/32/5
f 50/34/5 20/172/5 58/35/5
f 59/37/4 15/144/4 45/38/4
f 109/42/6 110/220/6 107/221/6
f 105/40/6 124/212/6 108/41/6
f 109/42/6 107/221/6 105/40/6
f 84/43/4 49/222/4 19/44/4
f 121/48/3 83/112/3 63/111/3
f 63/111/3 13/46/3 121/48/3
f 118/51/3 82/105/3 64/104/3
f 64/104/3 24/49/3 118/51/3
f 47/52/3 17/180/3 66/53/3
f 80/55/2 67/93/2 19/56/2
f 79/58/2 68/83/2 25/59/2
f 78/61/2 38/86/2 20/62/2
f 71/64/1 14/181/1 32/65/1
f 76/67/1 72/73/1 26/68/1
f 75/70/1 42/76/1 12/71/1
f 75/70/1 74/72/1 26/68/1
f 72/73/1 9/223/1 114/74/1
f 114/74/1 27/224/1 75/70/1
f 75/70/1 27/224/1 111/75/1
f 111/75/1 2/225/1 42/76/1
f 76/67/1 73/69/1 10/77/1
f 40/78/1 1/226/1 115/79/1
f 115/79/1 39/227/1 76/67/1
f 76/67/1 39/227/1 112/80/1
f 112/80/1 9/223/1 72/73/1
f 28/81/1 77/66/1 32/65/1
f 10/77/1 73/69/1 77/66/1
f 73/69/1 26/68/1 71/64/1
f 68/83/2 78/61/2 70/63/2
f 18/84/2 36/85/2 78/61/2
f 36/85/2 8/228/2 38/86/2
f 79/58/2 69/60/2 17/87/2
f 5/89/2 48/90/2 79/58/2
f 48/90/2 18/84/2 68/83/2
f 80/55/2 49/57/2 6/91/2
f 17/87/2 69/60/2 80/55/2
f 69/60/2 25/59/2 67/93/2
f 81/94/3 66/179/3 24/95/3
f 29/97/3 81/94/3 64/96/3
f 5/99/3 47/52/3 81/54/3
f 65/229/3 122/230/3 113/103/3
f 83/231/3 123/101/3 122/230/3
f 114/102/3 9/232/3 113/103/3
f 123/101/3 27/233/3 114/102/3
f 113/103/3 122/230/3 123/101/3
f 119/106/3 41/234/3 11/152/3
f 11/152/3 64/104/3 119/106/3
f 82/235/3 118/236/3 120/108/3
f 113/103/3 9/232/3 112/107/3
f 118/236/3 65/229/3 113/103/3
f 112/107/3 39/237/3 120/108/3
f 120/108/3 118/236/3 113/103/3
f 41/238/3 119/239/3 116/110/3
f 120/108/3 39/237/3 115/109/3
f 119/239/3 82/235/3 120/108/3
f 115/109/3 1/240/3 116/110/3
f 116/110/3 119/239/3 120/108/3
f 122/113/3 65/50/3 24/49/3
f 24/49/3 63/111/3 122/113/3
f 84/114/4 62/175/4 23/115/4
f 31/117/4 84/114/4 60/116/4
f 6/119/4 49/222/4 84/43/4
f 85/121/4 61/131/4 12/122/4
f 42/123/4 2/241/4 117/124/4
f 117/124/4 43/242/4 85/121/4
f 13/125/4 60/243/4 85/126/4
f 30/128/4 86/244/4 45/129/4
f 61/131/4 86/244/4 30/128/4
f 109/132/3 108/245/3 127/133/3
f 87/135/5 58/171/5 22/136/5
f 33/138/5 87/135/5 56/137/5
f 7/140/5 50/34/5 87/36/5
f 88/141/5 57/246/5 14/142/5
f 45/129/5 88/141/5 44/143/5
f 15/144/5 56/31/5 88/33/5
f 32/145/5 89/147/5 46/17/5
f 14/142/5 57/246/5 89/147/5
f 22/148/5 55/28/5 89/30/5
f 93/149/1 104/247/1 101/150/1
f 11/152/6 41/234/6 90/153/6
f 90/27/6 41/238/6 116/110/6
f 116/110/6 1/240/6 40/25/6
f 91/155/6 53/160/6 18/156/6
f 29/100/6 91/155/6 48/157/6
f 11/98/6 52/22/6 91/24/6
f 92/158/6 34/15/6 8/14/6
f 53/160/6 92/158/6 36/159/6
f 21/161/6 51/19/6 92/21/6
f 51/162/6 93/248/6 46/29/6
f 51/164/2 21/194/2 100/165/2
f 10/167/6 28/16/6 93/18/6
f 94/168/5 34/20/5 16/169/5
f 58/171/5 94/168/5 55/170/5
f 20/172/5 38/219/5 94/13/5
f 95/173/4 33/138/4 15/139/4
f 62/175/4 95/173/4 59/174/4
f 19/44/4 37/10/4 95/12/4
f 96/176/3 31/249/3 13/177/3
f 66/179/3 96/176/3 63/178/3
f 17/180/3 35/7/3 96/9/3
f 67/93/2 97/4/2 37/6/2
f 25/59/2 70/63/2 97/4/2
f 20/62/2 50/217/2 97/4/2
f 98/3/1 44/2/1 14/181/1
f 26/68/1 74/72/1 98/3/1
f 12/71/1 30/1/1 98/3/1
f 103/182/6 101/185/6 100/183/6
f 101/185/6 104/192/6 102/186/6
f 90/187/3 103/182/3 99/184/3
f 54/151/1 101/150/1 103/189/1
f 51/191/5 102/186/5 104/192/5
f 21/194/2 52/250/2 99/195/2
f 110/196/1 125/207/1 106/197/1
f 105/199/5 128/209/5 129/200/5
f 110/202/3 109/132/3 126/134/3
f 126/204/4 127/213/4 129/205/4
f 125/207/4 126/204/4 128/206/4
f 107/208/5 106/251/5 128/209/5
f 117/210/3 2/252/3 111/253/3
f 111/253/3 27/233/3 123/101/3
f 123/101/3 83/231/3 121/211/3
f 121/211/3 43/254/3 117/210/3
f 117/210/3 111/253/3 123/101/3
f 124/212/2 129/205/2 127/213/2
f 60/243/4 23/215/4 61/214/4
f 59/37/4 86/39/4 61/214/4
f 61/214/4 85/126/4 60/243/4
